# xmcd CD database file
#
# Track frame offsets:
#	150
#	10707
#	27062
#	40362
#	62307
#	79290
#	99757
#	120595
#	133610
#	147442
#
# Disc length: 2234 seconds
#
# Revision: 0
# Processed by: cddbd v1.5.2PL0 Copyright (c) Steve Scherf et al.
# Submitted via: CDex 1.70beta2
#
DISCID=7508b80a
DTITLE=Ahmet Koç - Sağanak - CD1
DYEAR=2006
DGENRE=New Age
TTITLE0=Papillion
TTITLE1=Can't Take My Eyes Off You
TTITLE2=Boat On The River
TTITLE3=Belle
TTITLE4=Mission Impossible
TTITLE5=Another Day In Paradise
TTITLE6=Desert Rose
TTITLE7=Love Story
TTITLE8=Awaara Hoon
TTITLE9=the Blue Cafe
EXTD=YEAR: 2006
EXTT0=
EXTT1=
EXTT2=
EXTT3=
EXTT4=
EXTT5=
EXTT6=
EXTT7=
EXTT8=
EXTT9=
PLAYORDER=
